# xmcd
#
# Track frame offsets: 
#        150
#        22714
#        45626
#        67050
#        88305
#        116578
#        145195
#        163129
#        189136
#        208756
#        233853
#        260652
#        276891
#
# Disc length: 3932 seconds
#
# Revision: 2
# Processed by: cddbd v1.5.2PL0 Copyright (c) Steve Scherf et al.
# Submitted via: ExactAudioCopyFreeDBPlugin 1.0
#
DISCID=bb0f5a0d
DTITLE=Various Artist - The very best of Africa
DYEAR=2003
DGENRE=No, thanks.
TTITLE0=Khaled - Didi
TTITLE1=Youssou N'Dour and Neneh Cherry - 7 Seconds
TTITLE2=Kanda Bongo Man - Monie
TTITLE3=Touré Kunda - Diboukokou Lambe
TTITLE4=Femi Kuti - Truth Don Die
TTITLE5=Salif Keita - Tekere
TTITLE6=Johnny Clegg and Savuka - Are You Ready
TTITLE7=Rachid Taha - Barra Barra
TTITLE8=Manu Dibango - Soul Makossa
TTITLE9=Mahlathini and Mahotella Queens - Umuntu Ngumuntu
TTITLE10=Angélique Kidjo - Itche Koutche
TTITLE11=Bhundu Boys - Ring Of Fire
TTITLE12=Mory Kanté - Yeke Yeke
EXTD=compilation and notes by Nigel Williamson\n2006. 2 cd'er and 1 komm
EXTD=entarhæfte\nPladeselskab: Demon Music Group\ncompilation and note
EXTD=s by Nigel Williamson\nEmne: verdensmusik  - vokal  - 1990-1999  - 2
EXTD=000-2009  - Algeriet  - Senegal  - Congo  - Nigeria  - Mali  - Sydafrik
EXTD=a  - Cameroun  - Benin  - Zimbabwe  - Guinea  - Kap Verde  - Afrika\nOp
EXTD=stilling: Rock. Antologier\nIndspilninger publiceret 1957-2003\nN
EXTD=ascenteNSCDD 2022
EXTT0=
EXTT1=
EXTT2=
EXTT3=
EXTT4=
EXTT5=
EXTT6=
EXTT7=
EXTT8=
EXTT9=
EXTT10=
EXTT11=
EXTT12=
PLAYORDER=
